<svg xmlns="http://www.w3.org/2000/svg" xmlns:xlink="http://www.w3.org/1999/xlink" width="101.517" height="96.544" viewBox="0 0 101.517 96.544">
  <defs>
    <filter id="twitter_icon" x="0" y="0" width="101.517" height="96.544" filterUnits="userSpaceOnUse">
      <feOffset dy="3" input="SourceAlpha"/>
      <feGaussianBlur stdDeviation="12.5" result="blur"/>
      <feFlood flood-color="#60b7fa" flood-opacity="0.341"/>
      <feComposite operator="in" in2="blur"/>
      <feComposite in="SourceGraphic"/>
    </filter>
  </defs>
  <g transform="matrix(1, 0, 0, 1, 0, 0)" filter="url(#twitter_icon)">
    <path id="twitter_icon-2" data-name="twitter icon" d="M17.717,0V0H18.96l.454.091a4.859,4.859,0,0,1,.825.232,5.867,5.867,0,0,1,.717.335,6.82,6.82,0,0,1,.629.389,3.87,3.87,0,0,1,.5.416.7.7,0,0,0,.686.115,9.179,9.179,0,0,0,1-.3q.538-.191,1.064-.43t.641-.3L25.6.472l0-.007.025-.012.025-.012.025-.012.025-.012,0-.007.007,0,.007,0,0-.007.025-.007.025,0,0,.036-.007.036-.012.036-.012.036L25.73.55l-.012.025L25.706.61a.832.832,0,0,0-.025.1,4.012,4.012,0,0,1-.227.478,5.98,5.98,0,0,1-.538.849,4.173,4.173,0,0,1-.581.65q-.258.221-.342.311a1.027,1.027,0,0,1-.2.167l-.119.079-.025.012-.025.012,0,.007-.007,0-.007,0,0,.007-.025.012-.025.012,0,.007-.007,0-.007,0,0,.007,0,.007-.007,0-.007,0,0,.007h.121l.67-.144a11.98,11.98,0,0,0,1.278-.347l.645-.215.072-.025.036-.012.025-.012.025-.012.025-.012.025-.012.048-.007.048,0v.048l-.012,0-.012.007,0,.007-.007,0-.007,0,0,.007,0,.007-.007,0-.007,0,0,.007,0,.007-.007,0-.012.025-.012.025-.007,0-.3.407a3.361,3.361,0,0,1-.323.407q-.025.007-.067.072a6.851,6.851,0,0,1-.507.533,12.032,12.032,0,0,1-.913.83,1.132,1.132,0,0,0-.454.9q-.007.531-.055,1.2T23.6,8.524a17.245,17.245,0,0,1-.407,1.757,15.978,15.978,0,0,1-.67,1.913,14.9,14.9,0,0,1-.825,1.674q-.43.741-.789,1.255t-.73.968q-.371.454-.937,1.023t-.622.622q-.055.053-.469.393t-.885.684a10.232,10.232,0,0,1-.865.567q-.393.227-.952.519a11.321,11.321,0,0,1-1.2.545q-.645.251-1.363.467a12.449,12.449,0,0,1-1.387.335q-.669.119-1.518.2l-.849.084v.012H7.579v-.012l-.2-.012q-.2-.012-.335-.025t-.992-.132q-.86-.119-1.352-.239T3.24,20.67a14.192,14.192,0,0,1-1.657-.677q-.686-.339-.86-.43t-.387-.22L.12,19.211l0-.007-.007,0-.007,0,0-.007-.025-.012-.025-.012,0-.007-.007,0-.007,0,0-.008,0-.007-.007,0H0V19.08l.025,0,.025.007.108.012q.108.012.586.036t1.016,0a10.694,10.694,0,0,0,1.1-.108,12.39,12.39,0,0,0,1.327-.287,9.8,9.8,0,0,0,1.406-.483q.639-.282.909-.421a8.846,8.846,0,0,0,.818-.507l.547-.37,0-.007.007,0,.007,0,0-.007,0-.007.007,0,.007,0,0-.007.025-.007.025,0,0-.025.007-.025.007,0,0-.007-.191-.012-.371-.025a3.594,3.594,0,0,1-.562-.108,5.393,5.393,0,0,1-.825-.287,6.359,6.359,0,0,1-.86-.454,4.236,4.236,0,0,1-.6-.438q-.184-.172-.478-.488a4.838,4.838,0,0,1-.507-.653,5.865,5.865,0,0,1-.411-.772l-.2-.433-.012-.036L2.953,13.1l-.007-.025,0-.025.036,0,.036.007.263.036a5.844,5.844,0,0,0,.825.025,6.386,6.386,0,0,0,.777-.048q.215-.036.263-.048l.048-.012.06-.012.06-.012,0-.007.007,0,.007,0,0-.007-.047-.012-.048-.012-.048-.012-.048-.012-.048-.012q-.048-.012-.167-.048T4.28,12.6a4.936,4.936,0,0,1-.836-.442,5.779,5.779,0,0,1-.593-.471,6.766,6.766,0,0,1-.615-.664,4.783,4.783,0,0,1-.6-.945A5.743,5.743,0,0,1,1.245,9.05a5.55,5.55,0,0,1-.172-.992l-.043-.5.025,0,.025.007.025.012.025.012.025.012.025.012.371.167a4.676,4.676,0,0,0,.921.287q.55.119.658.132l.108.012h.215l0-.007-.007,0-.007,0,0-.007,0-.007-.007,0-.007,0,0-.007-.025-.012-.025-.012,0-.007-.007,0-.007,0,0-.007L3.3,8.106l-.025-.012,0-.007-.206-.153a3.135,3.135,0,0,1-.414-.39q-.215-.239-.43-.5a3.877,3.877,0,0,1-.383-.562,6.811,6.811,0,0,1-.354-.76,5.4,5.4,0,0,1-.28-.926A5.267,5.267,0,0,1,1.1,3.873,5.8,5.8,0,0,1,1.124,3.1a5.079,5.079,0,0,1,.143-.729,5.682,5.682,0,0,1,.311-.86l.2-.455.013-.036L1.806.98l.007,0,0-.007,0-.007.007,0,.007,0,0,.007,0,.007.007,0,.007,0,0,.007L1.87,1l.007,0,.012.025.012.025.007,0,0,.007.322.358q.323.359.765.8a4.5,4.5,0,0,0,.49.459.35.35,0,0,1,.119.11,4.881,4.881,0,0,0,.478.423q.407.335,1.064.777t1.458.873a14.231,14.231,0,0,0,1.721.777q.921.347,1.291.454t1.267.275q.9.167,1.352.215t.622.055l.167,0,0-.036-.007-.036-.048-.3a5.618,5.618,0,0,1-.048-.836,5.487,5.487,0,0,1,.084-.992,5.877,5.877,0,0,1,.251-.921,4.917,4.917,0,0,1,.328-.75,7.362,7.362,0,0,1,.425-.638,5.155,5.155,0,0,1,.681-.741,5.028,5.028,0,0,1,.956-.681,6.217,6.217,0,0,1,.992-.454,4.624,4.624,0,0,1,.765-.2A2.659,2.659,0,0,0,17.717,0Z" transform="translate(37.5 34.5)"/>
  </g>
</svg>
